<svg width="12" height="7" viewBox="0 0 12 7" fill="none" xmlns="http://www.w3.org/2000/svg">
<path d="M0.563601 0.024796C0.35225 0.0969038 0.162035 0.269962 0.0563601 0.486284C0.00704501 0.589638 0 0.640114 0 0.85884C0 1.08958 0.00469668 1.12323 0.0657534 1.24341C0.122114 1.35157 0.634051 1.88757 2.80157 4.10849C5.0184 6.37988 5.49511 6.85578 5.61252 6.92068C5.74638 6.99519 5.76517 7 6 7C6.23483 7 6.25362 6.99519 6.38748 6.92068C6.50724 6.85578 6.97926 6.38228 9.20783 4.09647C11.3331 1.91882 11.8967 1.32754 11.9436 1.2314C11.993 1.12804 12 1.07757 12 0.85884C12 0.628096 11.993 0.594446 11.9319 0.46946C11.8497 0.303612 11.7135 0.164204 11.5421 0.0728679C11.4247 0.0127783 11.3894 0.00556707 11.1781 0.00556707C10.7671 0.00556707 11.002 -0.203544 8.34364 2.51491L6 4.90888L3.65871 2.51491C1.02622 -0.172297 1.23523 0.0127783 0.857143 0.000760555C0.739726 -0.00164318 0.619961 0.00797129 0.563601 0.024796Z" fill="#4A5056"/>
</svg>
