<svg width="23" height="22" viewBox="0 0 23 22" fill="none" xmlns="http://www.w3.org/2000/svg">
<path d="M11.1203 0.0673923C11.0393 0.102972 10.9329 0.179213 10.8874 0.23004C10.8418 0.28595 10.1026 1.75485 9.24696 3.5033C8.39131 5.25174 7.67743 6.69523 7.65718 6.71556C7.64199 6.73081 6.03195 6.97986 4.08269 7.26449C1.55625 7.63044 0.493015 7.80326 0.386692 7.86933C0.0474698 8.06756 -0.10442 8.58091 0.0778479 8.93161C0.118352 9.00786 1.17146 10.0701 2.42202 11.29C3.66752 12.5098 4.82189 13.6433 4.98391 13.8059L5.2725 14.1058L4.66494 17.6637C4.027 21.4045 4.03206 21.369 4.23458 21.679C4.36116 21.8722 4.69531 22.0196 4.94846 21.9891C5.10035 21.9738 6.03701 21.5062 8.30524 20.3067C10.0368 19.3969 11.4747 18.6497 11.5051 18.6497C11.5304 18.6497 12.9632 19.3918 14.6846 20.3016C16.4061 21.2114 17.8845 21.9687 17.9705 21.984C18.2237 22.0348 18.4718 21.9636 18.6591 21.7858C18.9983 21.4655 19.0084 21.6129 18.3351 17.6586L17.7275 14.1058L17.9655 13.8567C18.1022 13.7195 19.2515 12.5861 20.5324 11.3408C21.8083 10.0905 22.8816 9.00786 22.9222 8.93161C23.1044 8.58091 22.9525 8.06756 22.6133 7.86425C22.5019 7.80326 21.4792 7.63553 18.9173 7.25941C16.9681 6.97986 15.358 6.73081 15.3428 6.71048C15.3226 6.69523 14.6087 5.25174 13.753 3.5033C12.8974 1.75485 12.1582 0.28595 12.1126 0.23004C11.9253 0.0114841 11.4342 -0.0698395 11.1203 0.0673923Z" fill="white"/>
</svg>
